<svg width="100" height="100" xmlns="http://www.w3.org/2000/svg">

 <g>
  <title>background</title>
  <rect fill="none" id="canvas_background" height="402" width="582" y="-1" x="-1"/>
 </g>
 <g>
  <title>Layer 1</title>
  <rect fill="#ffffff" id="svg_1" y="25.673" x="31.436" width="37.764" height="2.178"/>
  <rect fill="#ffffff" id="svg_2" y="33.661" x="31.436" width="37.764" height="2.179"/>
  <rect fill="#ffffff" id="svg_3" y="42.375" x="31.298335" width="37.764" height="2.179"/>
  <rect fill="#ffffff" id="svg_4" y="50.363" x="31.436" width="37.764" height="2.179"/>
  <rect fill="#ffffff" id="svg_5" y="59.077" x="31.436" width="37.764" height="2.179"/>
  <path fill="#ffffff" id="svg_6" d="m76.823,8.79l-52.285,0c-3.604,0 -6.536,2.932 -6.536,6.536l0,69.349c0,3.604 2.932,6.536 6.536,6.536l42.119,0c9.21,0 16.702,-7.492 16.702,-16.702l0,-59.183c0,-3.605 -2.932,-6.536 -6.536,-6.536zm-54.465,75.885l0,-69.349c0,-1.202 0.979,-2.179 2.18,-2.179l52.285,0c1.2,0 2.178,0.977 2.178,2.179l0,56.096l-16.338,0l0,15.432l-38.125,0c-1.201,0 -2.18,-0.978 -2.18,-2.179zm44.662,2.16l0,-11.056l11.916,0c-0.625,6.094 -5.706,10.873 -11.916,11.056z"/>
 </g>
</svg>